/* XPM */
static char *result[] = {
/* columns rows colors chars-per-pixel */
"64 64 254 2 ",
"   c #010101",
".  c #0B0B0A",
"X  c #080906",
"o  c #130E0B",
"O  c #13140D",
"+  c #181914",
"@  c #0C0F10",
"#  c #241D1A",
"$  c #1C2618",
"%  c #252618",
"&  c #32361E",
"*  c #283318",
"=  c #2A2825",
"-  c #342D27",
";  c #293626",
":  c #3B3D2C",
">  c #393729",
",  c #3A3A33",
"<  c #2A3232",
"1  c #131A30",
"2  c #443B2C",
"3  c #443A33",
"4  c #49332C",
"5  c #3C442D",
"6  c #3C4B2D",
"7  c #35432A",
"8  c #3D4432",
"9  c #3B4B33",
"0  c #3A4638",
"q  c #3D5132",
"w  c #3E532F",
"e  c #42442C",
"r  c #45482B",
"t  c #424432",
"y  c #424A31",
"u  c #45463C",
"i  c #554938",
"p  c #425233",
"a  c #495337",
"s  c #5A543D",
"d  c #40502F",
"f  c #704D3D",
"g  c #2D3756",
"h  c #303D65",
"j  c #3C4456",
"k  c #3A4361",
"l  c #484944",
"z  c #594A44",
"x  c #595654",
"c  c #524F51",
"v  c #6D5B4C",
"b  c #685746",
"n  c #735D4B",
"m  c #785847",
"M  c #6B5A55",
"N  c #765C54",
"B  c #6E4C44",
"V  c #76634C",
"C  c #7C654B",
"Z  c #796347",
"A  c #796655",
"S  c #6A6C4B",
"D  c #52536E",
"F  c #656766",
"G  c #79746B",
"H  c #7D7C79",
"J  c #756C64",
"K  c #585D64",
"L  c #885A4C",
"P  c #875C51",
"I  c #995A51",
"U  c #81664D",
"Y  c #836A4D",
"T  c #8A6C4F",
"R  c #856C54",
"E  c #8B6D53",
"W  c #8C6D5B",
"Q  c #846656",
"!  c #956A57",
"~  c #8B7254",
"^  c #8B735A",
"/  c #94735B",
"(  c #9C745D",
")  c #9A7B5C",
"_  c #957857",
"`  c #AA755D",
"'  c #86766B",
"]  c #9B7C64",
"[  c #967964",
"{  c #90726B",
"}  c #A37B64",
"|  c #AA7C66",
" . c #AC7C6A",
".. c #A67868",
"X. c #B87A6B",
"o. c #B87B72",
"O. c #A7726A",
"+. c #A05E55",
"@. c #C07D6B",
"#. c #94845B",
"$. c #9E8168",
"%. c #9A8679",
"&. c #918875",
"*. c #A38365",
"=. c #AC8464",
"-. c #A3836B",
";. c #AB856B",
":. c #AB8B6C",
">. c #A88968",
",. c #B6876C",
"<. c #AC8B72",
"1. c #A88774",
"2. c #B38C74",
"3. c #BA8C75",
"4. c #B88A77",
"5. c #AC947A",
"6. c #B39374",
"7. c #BB9275",
"8. c #BB947D",
"9. c #BC9A7B",
"0. c #B69579",
"q. c #B1916D",
"w. c #AE805F",
"e. c #CA876A",
"r. c #C38B78",
"t. c #C2947C",
"y. c #C5987A",
"u. c #DB9374",
"i. c #D38E6C",
"p. c #E99676",
"a. c #CDA37B",
"s. c #ECA97D",
"d. c #535C86",
"f. c #666C95",
"g. c #516686",
"h. c #788BC9",
"j. c #989486",
"k. c #BC9A83",
"l. c #B99785",
"z. c #B89488",
"x. c #BBA387",
"c. c #BBA895",
"v. c #B5AA94",
"b. c #A9A9A9",
"n. c #B9B2AE",
"m. c #C39583",
"M. c #C39C83",
"N. c #CC9C83",
"B. c #C49C8C",
"V. c #CA9C8B",
"C. c #C5948A",
"Z. c #D1988A",
"A. c #D39E94",
"S. c #C7948A",
"D. c #E69A83",
"F. c #C3A385",
"G. c #C3A28B",
"H. c #CBA38C",
"J. c #CCA689",
"K. c #D4A98B",
"L. c #CBA492",
"P. c #CCAB94",
"I. c #CDAB9A",
"U. c #C5A894",
"Y. c #D2AB94",
"T. c #D2AD9A",
"R. c #DCAC9B",
"E. c #D4A396",
"W. c #CAB49B",
"Q. c #D4B29B",
"!. c #D7B69B",
"~. c #F7BC98",
"^. c #EDAE8D",
"/. c #CCB6A3",
"(. c #D2B4A3",
"). c #DBB5A3",
"_. c #DBBAA4",
"`. c #DCBCAA",
"'. c #D7B7A6",
"]. c #D7AFA7",
"[. c #E4BEAB",
"{. c #E3B7A6",
"}. c #E5BEB4",
"|. c #E7ACA8",
" X c #F9C597",
".X c #EFD099",
"XX c #DDC4AC",
"oX c #D8C8AA",
"OX c #D9C8B7",
"+X c #DFD2B9",
"@X c #CFCABB",
"#X c #E3C3AD",
"$X c #E9C8A8",
"%X c #FAC9A4",
"&X c #FAD5AA",
"*X c #E3C5B3",
"=X c #E5CBB4",
"-X c #EACAB4",
";X c #E5C4BA",
":X c #E5CCBB",
">X c #EBCDBB",
",X c #EBC3B7",
"<X c #E5D2BE",
"1X c #ECD3BC",
"2X c #EAD3B7",
"3X c #F6D9B8",
"4X c #F0CEB3",
"5X c #FCE6B7",
"6X c #FDEDAA",
"7X c #93B1D6",
"8X c #91B3E6",
"9X c #95A6D8",
"0X c #C0BCC2",
"qX c #9FC0E7",
"wX c #CFCEC9",
"eX c #EBCDC3",
"rX c #E7CEC2",
"tX c #ECD4C3",
"yX c #EDDAC3",
"uX c #EDD4CA",
"iX c #EDDCCC",
"pX c #E5D8C4",
"aX c #F1D5C4",
"sX c #F2DBC3",
"dX c #F2DBCB",
"fX c #F5D7CA",
"gX c #EADDD5",
"hX c #F3DDD2",
"jX c #ECE2CB",
"kX c #F3E2CC",
"lX c #F8E6C8",
"zX c #FCF4CE",
"xX c #EDE6D7",
"cX c #F4E4D4",
"vX c #F5E5DA",
"bX c #F5EADC",
"nX c #F9EBDC",
"mX c #F8E7D8",
"MX c #FCF6D8",
"NX c #F7ECE2",
"BX c #F9EDE1",
"VX c #F8ECE7",
"CX c #F7F2E3",
"ZX c #FAF3E4",
"AX c #FCFAE5",
"SX c #F9F4EC",
"DX c #FCFAEC",
"FX c #F6F4EB",
"GX c #FAF5F1",
"HX c #FCFBF3",
"JX c #FDFCFC",
"KX c #F4F4F4",
"LX c #E9E7E4",
"PX c None",
/* pixels */
"PXPXPXPXPXPXPXPXPXPXPXPXPXPXPXPXPXPXPXPXPXPXPXPXPXPXPXPXPXPXPXPXPXPXPXPXPXPXPXPXPXPXPXPXPXPXPXPXPXPXPXPXPXPXPXPXPXPXPXPXPXPXPXPX",
"PXPXPXPXPXPXPXPXPXPXPXPXPXPXPXPXPXPXPXPXPXPXPXPXPXX                           PXPXPXPXPXPXPXPXPXPXPXPXPXPXPXPXPXPXPXPXPXPXPXPXPX",
"PXPXPXPXPXPXPXPXPXPXPXPXPXPXPXPXPXPXPXPXPXX                                           PXPXPXPXPXPXPXPXPXPXPXPXPXPXPXPXPXPXPXPXPX",
"PXPXPXPXPXPXPXPXPXPXPXPXPXPXPXPXPXPXPX                                                    PXPXPXPXPXPXPXPXPXPXPXPXPXPXPXPXPXPXPX",
"PXPXPXPXPXPXPXPXPXPXPXPXPXPXPXPXPX                    % 3 z M A A v z > #                     PXPXPXPXPXPXPXPXPXPXPXPXPXPXPXPXPX",
"PXPXPXPXPXPXPXPXPXPXPXPXPXPXPXX               < J v.;XfXfXrX>X1X:X>X*X#X{.P.] b %               X PXPXPXPXPXPXPXPXPXPXPXPXPXPXPX",
"PXPXPXPXPXPXPXPXPXPXPXPXPXPX            + J `.vXmXuXuXhXiXuXfXaXaX>X-X*X[.!.Y.J.G.<.i O             PXPXPXPXPXPXPXPXPXPXPXPXPXPX",
"PXPXPXPXPXPXPXPXPXPXPXPXPX          + j.vXvXvXnXhXdXhXdXmXhXdXhXdXtXtX#XXX!.P.K.J.a.y.6.B O           PXPXPXPXPXPXPXPXPXPXPXPXPX",
"PXPXPXPXPXPXPXPXPXPXPX          X H xXAXNXbXBXvXvXhXuXNXnXhXmXdXiXdXtX*X_.T.E.J.F.F.9.M.0.] 4             PXPXPXPXPXPXPXPXPXPXPX",
"PXPXPXPXPXPXPXPXPXPX          - @XZXAXCXZXZXvXBXVXhXhXvXvXmXhXdXeX>X#X(.(.Q.Q.W.I.G.M.F.9.q.*.V +           PXPXPXPXPXPXPXPXPXPX",
"PXPXPXPXPXPXPXPXPX          x bXCXAXDXZXBXnXnXnXhXhXuXhXhXhXtX>X!.{.Q.I.*X4X4X3X2X[.P.k.G.6.$.^ E -         X PXPXPXPXPXPXPXPXPX",
"PXPXPXPXPXPXPXPX        X G CXCXZXCXNXnXhXdXdXdXdXeX*XaXtX#X-X_.Y.F.P.#X3X$X4X$X4X[.T.L.J.y.>.^ ^ ~ 2           PXPXPXPXPXPXPXPX",
"PXPXPXPXPXPXPXPX        &.CXCXAXNXNXmXiXdXdXuXhXhX1X>XyX#XY.!.K.7.6.V.E.z.{ ' { ' { { j. .1.1.<.^ A ^ r         PXPXPXPXPXPXPXPX",
"PXPXPXPXPXPXPX        G bXCXbXxXNXhXrXuXkXlXmXMXCXMX5XNXjX_.K.M.,.r. .O.{ N z z l z ' { O.{ [ *.^ R Y A -         PXPXPXPXPXPXPX",
"PXPXPXPXPXPX        x mXvXCXxXgX;XU.z.-.0.S.A.|.3X&X3XAXMX5X$Xu.i.e.,.e.@.X.` 3 - # - V.B.H.m.<.w._ Y A s o         PXPXPXPXPXPX",
"PXPXPXPXPX        # OXkXjXxXiXXXj.Q A B m 4 X.Z.D.~.3XAXAXzX&X~.a.,.e.u.u.~.gX= wXn.H NX%X&X&X^.q.#.~ ~ b > .         PXPXPXPXPX",
"PXPXPXPXPX      X %./.cXbX$Xy.] ^ E ! 4 z 3 # @.u.p.%XDXJXAX5X~.s.` p.^.|.FXKX+ b.b.JXJX X X6X6Xs.w.~ Y Z i 2         PXPXPXPXPX",
"PXPXPXPX        J OXW.bXFXzXoXK.y.^.%X= LXH 0XgXkXD.~.GXJXHXlX~.s.@.p.D.|.JXJXwXl + F KX Xs. X6Xs.=.~ Y C V v 2         PXPXPXPX",
"PXPXPXPX      o Z.1Xl.vXDXMX&X^.i.&XJXF F F KXJXJXAX5XHXJXJXlX~.s.i.p.p.~.nXJXJXgXj.s 5.s.s.~. X^.w.T E R C V ^ o X     PXPXPXPX",
"PXPXPX        W u.1Xz.iXCXMX5Xe.u.ZXJXJXb.< = 0XJXDXbXJXJXJXmX^.i.i.p.s. X5XjX, pX&.S 6. X%X&X%Xs.q.~ T R ~ R $.f         PXPXPX",
"PXPXPX      X !.p.zXc.OXnXDXzX3XZXJXJXLXKX&.b.x HXmXDXJXJXGXfX^.i.y.^.~.~.%XlXA & ; s 5XzXMXlX$Xy.;.) E R R R $.7.o       PXPXPX",
"PXPXX       O %.!.nX/.:XZXDXMXzXJXHXAXu c.A &.G GXJXJXJXJXJXfXR.,.,.y.R.$X4X5XMXpX&.MXAXAXlX$X!.3.1.} E T R R ^ 7.s         PXPX",
"PXPX    X   % b -XlX=X>XZXJXJXJXJXHXHX@Xl $ x LXJXJXJXJXJXJXfXt.3.3.N.E._.>XNXnXCXZXLXxXtX`.Y.8.0.<.[ E T Y C Q 6.*.        PXPX",
"PXPX      X * 7 =XcX1X-XSXJXJXJXJXJXJXKXJXb.JXJXJXJXJXJXJXVX).3.V.C.A.Y.'.}.:XuXuXrX>X-X_.R.H.3.} } ) / Y Y Z Q 9.:.#       PXPX",
"PXPX      $ 7 e W.vXuXkXBXZXHXJXJXJXJXJXJXJXJXJXJXJXJXJXJXhX}.T.I.T.E.I.`.}.}.eXeXeX,X[.[.R.N.7.| ( / E C Z V R 0.$.i       PXPX",
"PXX       > 8 2 &.bXvXNXNXBXVXHXJXJXJXJXJXJXJXJXJXJXJXJXGXBXrX].Q.P.L.T.].[.}.rXeXeXeX>X[.R.E.m.;._ _ / C Z Z Y 6.] ^         PX",
"PX        : t e v ZXbXiXnXBXZXHXHXJXJXJXJXJXGXGXVXSXJXGXGXVXeXOXY.V.B.B.H.).`.;XeXeXtX>X#XR.H.t.q.) / E C n n A ] =.$.        PX",
"PX      . 8 2 5 i CXhX>XdXnXnXCXHXJXJXJXGXVXfXfXeXBXSXHXGXLXuX'.L.B.B.C.r.S.A.{.;XtXeX-X{.K.a.y.,.*./ E U V n A *.q.=.O       PX",
"PX      O 8 2 i s gXCXdXdXnXvXAXHXHXHXGXNXcXeX,X,XgXHXHXFXVXrX}.].z.].].B.m.V.L.R.}.}.{.K.H.N.y.,.=.) R R A V W q.q._ %       PX",
"PX      + : : r r n.CXCXcXcXnXZXFXHXGXZXnXhXfX}.}.SXGXHXGXvXuX;XU.z.I.T.E.l.L.r.4.r.Z.A.N.y.y.7.=.=.) R E C v W :.q.#.%       PX",
"PX      + y : e 2 &.AXAXcXcXnXCXHXDXbXcXuX,X{.A.;XJXFXGXVXhXhX*XE.z.k.Y.M. .m.3. .O.| 3.t.r.r.,.} =.] R Y Y V i _ [ s +       PX",
"PX      + 6 5 e e i CXbXiXcXcXZXDXCXvXtX,XR.m.o.|.VXNXNXdXuX>XQ.8.1.3.8. ...4.4.,...! ! | 7.,. .( ] -.~ C Y V & * & 6 %       PX",
"PX      + 8 5 t e t xXCXvXcXmXbXnXnXdX>X|.Z.X.o.L.tXiX:X#XXX).z.} [ [ ! ] } <.1.1.-. ...] ..;.=.! ( ;.~ Y Y Z e * * q $       PX",
"PX      + y y t t t @XCXbXcXmXcXlXkX1X[.Z.o.O.,.H.'.XX'.W.I.B.1.] ] [ [ } ..<.] { 1.1.1. .} =.w.( T :./ R U Z i : 7 7 $       PX",
"PX      O p y 5 a e &.bXnXkXcXlXsXsX1XR.3.O...m.Q.:XyX1XXX'.F.5.1.%.$.[ [ [ [ [ $.$...-.-.<.>.>.) ~ >.) U U C s r 6 7 +       PX",
"PX      O 6 6 5 8 8 y v.1XcXcXyX2X3X#XK...| 8.!.-XdXiXjX<X'.U.k.z.5.<.*.;. .] ] $.$.] ..-.<.:.7.w.~ 6.) Y Y Z S r 7 5 O       PX",
"PX      X d 6 5 y y e > M cXkXyX#X$XoXy.( 3.Y.*XyXdXcXcXdX=X!.H.B.k.6.,. .;...[ ! ! ! ( $.:.q.9.*._ 5.#.R C Z Z 6 5 6 X       PX",
"PX        d r 7 5 e : & u cXkX3XY.3X.Xy...M.Q.;XiXcXkXpXeX-X).R.A.8.=.( ! I L m B f B ! :.q.>.x.$.) 5.$.C C Z s 9 7 6         PX",
"PX        & r 6 e 5 > & , iXlX1X!.2XXXN.,.k.F.`.1X{.N.N.m.y.y.3.X.O.! ! ] ( I P P B L 1.7.6.0.9.$.:.9._ Y Z Z s a 8 %         PX",
"PXPX      $ p p 6 : : r y oXjX1X!.XX2XK.2.9.9.G.o.L =.$X<XdX*XP.,.P.U.U.U.W.1.[ P m ! 3.7.6.x.9.>.l.k.$.Y Z Z i : > +       PXPX",
"PXPX      . w d q 6 q a a x.lXlX!.oX3X_.9.8.J.3.L f F.FXDXGXFXMX$XjXoXoXW.oXj.] m I | 2.9.9.F.x.1.x.6.] N C n r s : X       PXPX",
"PXPX        7 w w w q y 5 &.lX1X$X$XlX=XJ.7.K.H...E H.HXJXJXHXCX<XjXoXW.5.x.! L I +.| ,.7.9.Y.9.-.x.-.W Q n n r #.>         PXPX",
"PXPX        $ w q q a a : z iXlX1X=XlXXXQ.2.G.!.B.z.1.`.bXKXCXbXoX+X/.x.8.I I I +...;.3.y.W.J.*.:.0.*.Q N N x l S $ X     X PXPX",
"PXPXPX      X 7 q q q q 5 t OXjXjXyXjX2X_.0.P.#X;X;X|.E.:XxXCXjX!.2XW.F.@.X.+.O.O...4.m.P.oXF.*.>.>.[ N M M f.f.f.X       PXPXPX",
"PXPXPX        $ w 9 q q 9 u %.yXcXiXjX3XXXG.B.-XdXdXuXfX}.R.>XhX_.!.A.A.Z.o.X. .;. .z.P.'.!.q._ q.] E n M K D d.k         PXPXPX",
"PXPXPXPX      X 7 j x l 0 u x OX1XyXjXjX=X!.G.1XkXdXfXeXeX,X|.|.|.R.R.A.o.r.4.4.2.4.L.(.`.F._ ) #.~ C n b D h h @       PXPXPXPX",
"PXPXPXPX        O 0 F x 3 , l G <XyXpXkX1XXXT.=XsXcXsXaX}.|.E.E.E.E.V.B.A.A.c.l.2.l.L.(.!.=._ #._ T n b v c g 1         PXPXPXPX",
"PXPXPXPXPX      X $ K x l , : t ' +XyXyX3XyX#X[.fXdXkX3X,XR.'.I.P.B.L.U.U.I.L.z.4.k.k.I.9.[ / _ ~ V B m n c g         PXPXPXPXPX",
"PXPXPXPXPXX       X 0 j 9 u : : l G +XjXjXjX1X1X1XkXkX:X#X`.W.P.U.U.(.U.U.W.F.9.M.k.F.9.;.) R ~ Y n m L m x @         PXPXPXPXPX",
"PXPXPXPXPXPX        $ 7 ; l u 8 q c H <XjXlXcXiXdXlXkXsX>X`.(.(.'.'./.W.(./.!.J.J.F.F.<.$.^ R U f m U f m =         PXPXPXPXPXPX",
"PXPXPXPXPXPXPX        O ; 0 u 0 0 9 0 &.yXiXjXbXnXmXnXcXiXdXrXrXrXrXrX:X<X:XXX!.P.F.9.>.[ A n n f L P P 4         PXPXPXPXPXPXPX",
"PXPXPXPXPXPXPXPX        O ; < 7 0 ; < j wX+XiXbXnXBXCXbXNXcXvXnXgXgXcXhXgXpX:X_.K.F.9.$.~ V n b V Z E 4         PXPXPXPXPXPXPXPX",
"PXPXPXPXPXPXPXPX          O $ ; = < g 7X8Xn.rXuXnXCXbXnXnXnXBXmXNXnXhXhXuX;X).H.J.9.;.[ A n b b V Y 4           PXPXPXPXPXPXPXPX",
"PXPXPXPXPXPXPXPXPX          @ ; < c 7XqX8X9Xn.;XmXvXnXdXkXnXdXfXfXuXcXuX;XQ.H.B.G.6.] Q M v b n N -           PXPXPXPXPXPXPXPXPX",
"PXPXPXPXPXPXPXPXPXPXX         @ k 8X8X8X8Xh.f.].pXnXcXsXkXaXaX1X-XfXsX-X#XQ.F.M.<.*._ v v v b B +           PXPXPXPXPXPXPXPXPXPX",
"PXPXPXPXPXPXPXPXPXPXPX          @ D 8X8X9Xh.d.D oXyXdXsXyXsXsX-X-X-X-X$X!.Q.0.1.] W n b n v - X           PXPXPXPXPXPXPXPXPXPXPX",
"PXPXPXPXPXPXPXPXPXPXPXPXPX          + g.h.h.d.c +XOX<XrX1X1X-X$X#X!.).Y.G.6.$.[ Q n v M 3 .           PXPXPXPXPXPXPXPXPXPXPXPXPX",
"PXPXPXPXPXPXPXPXPXPXPXPXPXPX            @ h D M OXdXXX'.'.).W.P.F.M.z.4...{ A N v z - .             PXPXPXPXPXPXPXPXPXPXPXPXPXPX",
"PXPXPXPXPXPXPXPXPXPXPXPXPXPXPX                + J v.rX`.B.l.1.%.[ [ W Q Q N z > +                 PXPXPXPXPXPXPXPXPXPXPXPXPXPXPX",
"PXPXPXPXPXPXPXPXPXPXPXPXPXPXPXPXPX                  X # , - - = = = # # @                     PXPXPXPXPXPXPXPXPXPXPXPXPXPXPXPXPX",
"PXPXPXPXPXPXPXPXPXPXPXPXPXPXPXPXPXPXPX                                                    PXPXPXPXPXPXPXPXPXPXPXPXPXPXPXPXPXPXPX",
"PXPXPXPXPXPXPXPXPXPXPXPXPXPXPXPXPXPXPXPXPX                                            PXPXPXPXPXPXPXPXPXPXPXPXPXPXPXPXPXPXPXPXPX",
"PXPXPXPXPXPXPXPXPXPXPXPXPXPXPXPXPXPXPXPXPXPXPXPXPX                            PXPXPXPXPXPXPXPXPXPXPXPXPXPXPXPXPXPXPXPXPXPXPXPXPX",
"PXPXPXPXPXPXPXPXPXPXPXPXPXPXPXPXPXPXPXPXPXPXPXPXPXPXPXPXPXPXPXPXPXPXPXPXPXPXPXPXPXPXPXPXPXPXPXPXPXPXPXPXPXPXPXPXPXPXPXPXPXPXPXPX"
};
