/* XPM */
static char *result[] = {
/* columns rows colors chars-per-pixel */
"16 16 176 2 ",
"   c #010101",
".  c #020201",
"X  c #020202",
"o  c #030403",
"O  c #070605",
"+  c #090706",
"@  c #0A0806",
"#  c #060609",
"$  c #0C0A08",
"%  c #0A0D0A",
"&  c #0D0C0B",
"*  c #08090C",
"=  c #0E120D",
"-  c #16130F",
";  c #1D1714",
":  c #221A15",
">  c #231E17",
",  c #192114",
"<  c #28261C",
"1  c #25281F",
"2  c #2D361F",
"3  c #2F2722",
"4  c #2D2F21",
"5  c #2A3020",
"6  c #303A25",
"7  c #373927",
"8  c #353D29",
"9  c #2C2C3C",
"0  c #373E31",
"q  c #3C3833",
"w  c #3F3E39",
"e  c #4C3E31",
"r  c #3C402B",
"t  c #3E473B",
"y  c #514336",
"u  c #405031",
"i  c #464654",
"p  c #5F5C52",
"a  c #635244",
"s  c #685C42",
"d  c #6F5C47",
"f  c #675348",
"g  c #795A48",
"h  c #695B54",
"j  c #665F5A",
"k  c #766147",
"l  c #756247",
"z  c #78614C",
"x  c #78624C",
"c  c #7A634C",
"v  c #696C5F",
"b  c #8C6253",
"n  c #846951",
"m  c #856C52",
"M  c #856E55",
"N  c #897154",
"B  c #9B7A5D",
"V  c #9B795E",
"C  c #9D7B5F",
"Z  c #85756F",
"A  c #967467",
"S  c #9E7664",
"D  c #997C62",
"F  c #9B7D66",
"G  c #967B6A",
"H  c #987E6C",
"J  c #A77766",
"K  c #A27F65",
"L  c #A17E68",
"P  c #AB7F6D",
"I  c #83826F",
"U  c #9F806B",
"Y  c #A98262",
"T  c #A2856A",
"R  c #A1806C",
"E  c #AA8469",
"W  c #A5886C",
"Q  c #B68C76",
"!  c #BC8979",
"~  c #BE8F7F",
"^  c #AF9073",
"/  c #B49375",
"(  c #BE927F",
")  c #BE997F",
"_  c #C18C73",
"`  c #C09278",
"'  c #E09874",
"]  c #62778F",
"[  c #8E8886",
"{  c #A29285",
"}  c #AB9381",
"|  c #A69C85",
" . c #BE9B80",
".. c #BF9885",
"X. c #A09D90",
"o. c #A19D97",
"O. c #AC9B91",
"+. c #BEA08E",
"@. c #B7B09F",
"#. c #9CA0BC",
"$. c #C09383",
"%. c #C39E87",
"&. c #CC9A85",
"*. c #C49E8E",
"=. c #C0A083",
"-. c #C9A38A",
";. c #C3A191",
":. c #CBA494",
">. c #CEAC93",
",. c #C4AC9B",
"<. c #C6AE9D",
"1. c #CBAD98",
"2. c #D3A497",
"3. c #D2A891",
"4. c #D0AE99",
"5. c #DCBC9E",
"6. c #C6B7A3",
"7. c #CAB4A6",
"8. c #CCB7A9",
"9. c #CABCAC",
"0. c #D1B1A2",
"q. c #DAB6A1",
"w. c #DCB5A7",
"e. c #D7BBA5",
"r. c #DCBEA9",
"t. c #DEBFAA",
"y. c #E1BFA6",
"u. c #E3B7AC",
"i. c #F9C999",
"p. c #D7C5A9",
"a. c #DEC1A9",
"s. c #DBC3B5",
"d. c #D8C9BB",
"f. c #DBC8BB",
"g. c #E5C6A9",
"h. c #E2C5AC",
"j. c #E7C2B6",
"k. c #E7CEB2",
"l. c #E2C8B5",
"z. c #E5CBB4",
"x. c #E8CCB4",
"c. c #E4CCBC",
"v. c #EBCBBF",
"b. c #E8D1B6",
"n. c #E6D5BF",
"m. c #ECD2BC",
"M. c #DFDACC",
"N. c #EDD7CC",
"B. c #EFD8C8",
"V. c #EDDECB",
"C. c #ECD8CF",
"Z. c #F0D6C4",
"A. c #F6DCC1",
"S. c #F2DAC9",
"D. c #F6DDCB",
"F. c #F0D8CE",
"G. c #F3DECC",
"H. c #F1DCD0",
"J. c #EBE1D1",
"K. c #F2E2D0",
"L. c #F4E3D1",
"P. c #F5E5D3",
"I. c #FCE5D3",
"U. c #F6E7DA",
"Y. c #F4E5DE",
"T. c #F6E8D8",
"R. c #ECEBE5",
"E. c #F5F0E4",
"W. c #F9F0E5",
"Q. c #F9F2E8",
"!. c #FCF6E8",
"~. c #FBF5F2",
"^. c #FAF6F2",
"/. c #FCFBF7",
"(. c #FCFDFB",
"). c None",
/* pixels */
").).).).).).      X ).).).).).).",
").).).).& j O.8.<.H y @ ).).).).",
").).X w M.U.H.B.t.y.>.D > X ).).",
").).q J.7.0.A.g._ A Z ) N - ).).",
").$ ,.k.+.[ D.I.' f.X.i.Y d + ).",
").< z.!.R.o./.F.&.x.9.h.K m e ).",
". 4 d.W.(.~.^.C.:.w.v.3.V c z . ",
"  7 @.T.Q.j.Y.N.*.( ~ ` C x s   ",
"  8 I P.m.! l.1.U L R E B k 6   ",
"X 2 r 6.5.%.r.q.Q S b / W l 5 . ",
")., u | b.-.;.E.p.P J =.T h 1 ).",
").o t p n.a.S.u.2.$...^ n i # ).",
").).= 0 v V.L.c.s.e. .M g ; ).).",
").).X % ] #.K.G.Z.4.F a : X ).).",
").).).).* 9 { } G f 3 O ).).).).",
").).).).).)..     . ).).).).).)."
};
