/* XPM */
static char *_0167244a75e4396dc9d78e529519f62HvbsaeozXW08Emh5[] = {
/* columns rows colors chars-per-pixel */
"32 32 222 2 ",
"   c None",
".  c #010101",
"X  c #070A07",
"o  c #080A06",
"O  c #0D0B0B",
"+  c #100D0A",
"@  c #13150E",
"#  c #18170F",
"$  c #141211",
"%  c #1A1611",
"&  c #1C1A17",
"*  c #0D120B",
"=  c #1D261A",
"-  c #29211B",
";  c #24271C",
":  c #26311E",
">  c #151924",
",  c #1C2233",
"<  c #272C25",
"1  c #342B26",
"2  c #2B3122",
"3  c #2D372B",
"4  c #393928",
"5  c #2F3237",
"6  c #44382D",
"7  c #453731",
"8  c #3E432C",
"9  c #3C492B",
"0  c #3E512F",
"q  c #3C413B",
"w  c #394533",
"e  c #3D5032",
"r  c #414A2F",
"t  c #42422B",
"y  c #434531",
"u  c #404931",
"i  c #494932",
"p  c #42463C",
"a  c #594839",
"s  c #5E553B",
"d  c #52523E",
"f  c #614C3E",
"g  c #60563D",
"h  c #354245",
"j  c #3E496E",
"k  c #4E4742",
"l  c #475142",
"z  c #575548",
"x  c #585856",
"c  c #524A44",
"v  c #6C4E42",
"b  c #635343",
"n  c #6A5C44",
"m  c #695848",
"M  c #715B47",
"N  c #735E4B",
"B  c #7B5D4A",
"V  c #7F5649",
"C  c #685855",
"Z  c #735E58",
"A  c #5B6052",
"S  c #7B634B",
"D  c #7C6450",
"F  c #796459",
"G  c #726D57",
"H  c #46536E",
"J  c #60586E",
"K  c #666465",
"L  c #776A60",
"P  c #7E7068",
"I  c #7B7C7B",
"U  c #845C4E",
"Y  c #836A4E",
"T  c #80674B",
"R  c #846C53",
"E  c #8A6E58",
"W  c #936756",
"Q  c #8D7358",
"!  c #92745A",
"~  c #9B7B5E",
"^  c #987459",
"/  c #A06158",
"(  c #8F6F62",
")  c #897267",
"_  c #9B7C65",
"`  c #997666",
"'  c #937E70",
"]  c #A27C64",
"[  c #A47D6A",
"{  c #AA7D69",
"}  c #A87864",
"|  c #B47D6D",
" . c #A37C71",
".. c #8F8067",
"X. c #9D8164",
"o. c #8A8879",
"O. c #948A78",
"+. c #A58565",
"@. c #AC8667",
"#. c #A4846B",
"$. c #AB846B",
"%. c #AB8C6A",
"&. c #A6896E",
"*. c #B4836E",
"=. c #AC8D74",
"-. c #A58272",
";. c #B58973",
":. c #BB8D73",
">. c #BB8D7B",
",. c #B48673",
"<. c #AE9178",
"1. c #B3937A",
"2. c #BA947D",
"3. c #B79A7B",
"4. c #BD9A7E",
"5. c #B69175",
"6. c #C1927C",
"7. c #C99676",
"8. c #CF9072",
"9. c #E99978",
"0. c #857D97",
"q. c #758EAE",
"w. c #8E8C82",
"e. c #968E84",
"r. c #9A968B",
"t. c #A38F81",
"y. c #AA9E8F",
"u. c #A89589",
"i. c #BC9D84",
"p. c #BA9785",
"a. c #AE9790",
"s. c #ABA193",
"d. c #B9AA95",
"f. c #BEBAAD",
"g. c #B8B9B9",
"h. c #C49C84",
"j. c #CB9989",
"k. c #C59987",
"l. c #CB9D91",
"z. c #D19D92",
"x. c #C48880",
"c. c #CBA48D",
"v. c #CCA98D",
"b. c #C4A188",
"n. c #D1AA8C",
"m. c #CBA394",
"M. c #CCAB94",
"N. c #CDA69A",
"B. c #D2AC95",
"V. c #D4AA9C",
"C. c #D5A092",
"Z. c #CFB29A",
"A. c #D5B39B",
"S. c #DAB39D",
"D. c #DDB797",
"F. c #EAB798",
"G. c #EAB492",
"H. c #C8B5A3",
"J. c #D4B3A3",
"K. c #DBB5A1",
"L. c #DBBBA5",
"P. c #DDBBAA",
"I. c #D8BAA8",
"U. c #E2B6A8",
"Y. c #F3BFA1",
"T. c #E8BFB3",
"R. c #EBC19C",
"E. c #FAC99D",
"W. c #FBD79B",
"Q. c #D4C3AA",
"!. c #CBC6BB",
"~. c #D9C7B5",
"^. c #DDCBB3",
"/. c #D7C9BF",
"(. c #CCC3AB",
"). c #E2C3AC",
"_. c #E5CBAD",
"`. c #E8C6AA",
"'. c #F4C8A8",
"]. c #E2C5B2",
"[. c #E5C7BC",
"{. c #E3CDBD",
"}. c #EBCCBC",
"|. c #E8C7B4",
" X c #EBD3BD",
".X c #EED9BE",
"XX c #E3D3BD",
"oX c #FBD1B1",
"OX c #8198D4",
"+X c #8DADD9",
"@X c #A2AFD1",
"#X c #CBC9C3",
"$X c #D7CDC0",
"%X c #D7D4CA",
"&X c #EED4C4",
"*X c #EEDAC5",
"=X c #EBD4CA",
"-X c #EDDACB",
";X c #E6D0C1",
":X c #F2DCC5",
">X c #F3DDCB",
",X c #F8D0C6",
"<X c #EEDDD1",
"1X c #F5DFD3",
"2X c #ECCDC5",
"3X c #F4E2CC",
"4X c #FBECCC",
"5X c #ECE3D6",
"6X c #E9E6DB",
"7X c #F5E4D4",
"8X c #F5E5DA",
"9X c #F6EADA",
"0X c #F8EBDD",
"qX c #F9ECD3",
"wX c #FBF4DC",
"eX c #F8EDE3",
"rX c #F5EEE8",
"tX c #FAF2E5",
"yX c #FAF5EC",
"uX c #FCFAF3",
"iX c #FDFDFC",
"pX c #FBF5F2",
/* pixels */
"                          . . . . . .                           ",
"                    . . . . . . o . . . . .                     ",
"                . . . - c P O.u.t...D 7 % . . .                 ",
"              . o 5 e./.>X1X1X>X>X}.U.v.=.N - . .               ",
"          . . & w.5XtXeX8X1X8X1X&X).K.A.M.h.#.a + . .           ",
"        . . 3 f.tXtX7X7X=X&X&X|.A.S.).).I.c.4.X.n % . .         ",
"        . 3 !.eX8X-X&X>X3X:X_.n.>.;.' U F '  .#.Q n @ .         ",
"      . $ d.9X{.a.` ( k.'.4XqXF.8.8.j.) K u.D.n.+.Y 6 o .       ",
"    . . L ;X3Xv.;.) K a.F.>XuXoX7.9.,Xg.I !.E.W.7.R n 4 . .     ",
"    . 1 B.~.wXR.'.%XI g.rXtXuXoX9.9.oX$Xo.~ Y.E.7.Q R R - .     ",
"  . . b `.~.tX4XpX%XO.' rXuXuXT.7.n.'.Q.o.(.4X`.:.! Y ! M . .   ",
"  . . i ^.XXyXiXiX6Xr.#XiXiXpXJ.6.C.).>X5X*X).j.@.! Y E _ % .   ",
"  . @ y H.8XeXuXiXiXiXiXiXiXrXP.B.N.L.[.2X|.U.k.} Q S R #.4 .   ",
". . ; y s.7X9XtXiXiXpX8XeXpXrX[.m.l.l.U.}.}.S.h.@.Q S D @.a . . ",
". . : t O.9X7XeXuXyX9X2X=XuXrX2Xm.N.j.k.C.B.c.6.@.! D R %.s . . ",
". . 2 6 G 5X7X9XrX5X].z.2XrX1X].p.p.;.>.{ } :.*.] ! T g s 4 . . ",
". . 2 y d XX9XqXqX}.j.| J.{.I.l._ ` ] #.#. .[ +.^ ~ Y s 3 : . . ",
". . : e e r.-X3X XK.| k.].*XQ.i.=.#.[ _ X.X.$.%.~ ] Y n r : . . ",
". . ; 9 9 4 y.*X_.n.,.L.:X*X].B.p.[ ` W U W %.5.+.+.Y S r = . . ",
"  . # 0 9 4 O..X).D.5.M.h.M.P.B.6.>.<.^ V ` 5.3.<.&.S g 8 @ .   ",
"  . o 9 e 0 P .X_._.b.h.W Q.uXeX XQ.b.` W | 3.i.p._ B z i X .   ",
"  . . : e e z ^.*X Xv.M.V.J.5X9X^.M.| W } ;.v.3.%.Q Z K q . .   ",
"    . * w l q s.:X:XL.L.>X2XT.T.S.z.x.,.,.m.Z.+.~ D x j > .     ",
"    . . = x q z Z.*X XQ.>X:XU.V.m.l.m.h.>.m.1.! R M C , . .     ",
"      . . 3 p q A H.3X*X3X*X].J.H.H.Z.v.b.i._ E B B a X .       ",
"        . o < w 8 J /.5X9XqX7X-X=X=X;XL.c.=.R N B v # .         ",
"        . . X = h q.@X#X9X9X7X7X1X>X[.M.3.~ N m f % . .         ",
"          . . X H +XOX0.{.3X:X X X|.S.2._ D b 6 O . .           ",
"              . X , H J Q.}._.L.B.c.=.E m 7 & . .               ",
"                . . X $ k L F C b a 7 - O . . .                 ",
"                    . . . . . . . . . . . .                     ",
"                          . . . . . .                           "
};
