/* XPM */
static char *result[] = {
/* columns rows colors chars-per-pixel */
"32 32 221 2 ",
"   c #020201",
".  c #080705",
"X  c #0C0C0A",
"o  c #0A0807",
"O  c #120E0B",
"+  c #12160D",
"@  c #171515",
"#  c #221F1C",
"$  c #211914",
"%  c #1E241A",
"&  c #1D291D",
"*  c #242419",
"=  c #2A331E",
"-  c #192035",
";  c #192029",
":  c #2B2B24",
">  c #252E20",
",  c #2C3224",
"<  c #293522",
"1  c #373B28",
"2  c #353531",
"3  c #44382E",
"4  c #453833",
"5  c #3D442C",
"6  c #3B4D2E",
"7  c #3D502E",
"8  c #3E4331",
"9  c #3A4538",
"0  c #42482E",
"q  c #434432",
"w  c #47443D",
"e  c #59463A",
"r  c #435234",
"t  c #5D533B",
"y  c #54553B",
"u  c #615439",
"i  c #3B4870",
"p  c #4F4D43",
"a  c #5D4A41",
"s  c #565747",
"d  c #505251",
"f  c #475243",
"g  c #6E5B4D",
"h  c #675646",
"j  c #715A46",
"k  c #7C5A49",
"l  c #745B4A",
"z  c #675856",
"x  c #725E58",
"c  c #596159",
"v  c #716147",
"b  c #74624C",
"n  c #7B644C",
"m  c #7E6353",
"M  c #776858",
"N  c #54566C",
"B  c #67676B",
"V  c #7C6D64",
"C  c #7F7069",
"Z  c #777269",
"A  c #7C7572",
"S  c #915D4F",
"D  c #835A4C",
"F  c #A05E58",
"G  c #846A4E",
"H  c #856B4E",
"J  c #846C52",
"K  c #8D6D5F",
"L  c #8A6854",
"P  c #936B54",
"I  c #8B725A",
"U  c #877357",
"Y  c #927259",
"T  c #98785B",
"R  c #A0725F",
"E  c #847860",
"W  c #9B7C62",
"Q  c #9E7D6A",
"!  c #967465",
"~  c #937A70",
"^  c #A47365",
"/  c #A27B64",
"(  c #AD7B6A",
")  c #B47A6A",
"_  c #9E8067",
"`  c #918976",
"'  c #9B877A",
"]  c #858177",
"[  c #A58464",
"{  c #AC8566",
"}  c #A2816C",
"|  c #AB846D",
" . c #AC8B6C",
".. c #A68B6D",
"X. c #B2856E",
"o. c #AB8C73",
"O. c #A98472",
"+. c #B38D72",
"@. c #B98D73",
"#. c #B78875",
"$. c #B49376",
"%. c #B2947A",
"&. c #BA947B",
"*. c #B89176",
"=. c #C8916E",
"-. c #C58973",
";. c #C59679",
":. c #D49275",
">. c #D1986C",
",. c #EC9B7A",
"<. c #4C5981",
"1. c #766E8B",
"2. c #7C96B6",
"3. c #838281",
"4. c #9D8D84",
"5. c #999488",
"6. c #A18F88",
"7. c #AA988A",
"8. c #BC9D82",
"9. c #B79686",
"0. c #ADA396",
"q. c #B8AA93",
"w. c #B6B6B6",
"e. c #BCBAA2",
"r. c #C38580",
"t. c #C39C84",
"y. c #C39B8B",
"u. c #CD9A8B",
"i. c #C59882",
"p. c #CC9E91",
"a. c #D0968B",
"s. c #C3A284",
"d. c #CCA185",
"f. c #C6A38B",
"g. c #CCA68C",
"h. c #CBAA8C",
"j. c #D2AA8C",
"k. c #CBA493",
"l. c #CDAD95",
"z. c #C8A697",
"x. c #D2AD96",
"c. c #D5A99B",
"v. c #CDB19E",
"b. c #D4B29B",
"n. c #DBB49C",
"m. c #F5BF8D",
"M. c #E7AB90",
"N. c #E8BA9A",
"B. c #F5B791",
"V. c #CCAFA0",
"C. c #D1ACA1",
"Z. c #CBBCAA",
"A. c #D7B5A2",
"S. c #DBB6A2",
"D. c #D7B9A2",
"F. c #DCBBA5",
"G. c #DEBDAB",
"H. c #D6BAAA",
"J. c #E3B3A8",
"K. c #F5BFA1",
"L. c #E9BCB1",
"P. c #CDC0AB",
"I. c #DEC3A6",
"U. c #D7C7AC",
"Y. c #CBC8BC",
"T. c #DCCDBB",
"R. c #D0C4B4",
"E. c #E2C4AE",
"W. c #E8C8AB",
"Q. c #FACAA3",
"!. c #E2C5B3",
"~. c #E5C9B6",
"^. c #EBCDB5",
"/. c #E5C7BC",
"(. c #EDCEBB",
"). c #E7C7B8",
"_. c #F7C7B3",
"`. c #ECD4BB",
"'. c #EAD9BF",
"]. c #EAD0B5",
"[. c #F7D5B2",
"{. c #FCD3A8",
"}. c #FDE5A3",
"|. c #8299D5",
" X c #9EAED6",
".X c #96B8E5",
"XX c #CACAC7",
"oX c #D5D5D4",
"OX c #DCD6C6",
"+X c #EDCBC2",
"@X c #E5CAC0",
"#X c #EBD5C4",
"$X c #EEDAC4",
"%X c #ECD6CB",
"&X c #EEDCCC",
"*X c #E0D4C4",
"=X c #F1DDC5",
"-X c #F2DCCC",
";X c #F5D5C8",
":X c #EEDED1",
">X c #EDD7D0",
",X c #F3DFD3",
"<X c #F3E3CE",
"1X c #FAE9CA",
"2X c #EDE4D8",
"3X c #F4E3D3",
"4X c #F6E5DA",
"5X c #F6EADC",
"6X c #F8ECDD",
"7X c #F7E8D7",
"8X c #FBF3D7",
"9X c #F8EDE4",
"0X c #F9EFEB",
"qX c #F7EFE0",
"wX c #F9F4E5",
"eX c #FAF6EB",
"rX c #F5F2E6",
"tX c #FBF7F2",
"yX c #FBFAF4",
"uX c #FDFCFC",
"iX c None",
/* pixels */
"iXiXiXiXiXiXiXiXiXiXiXiXiXiX        iXiXiXiXiXiXiXiXiXiXiXiXiXiX",
"iXiXiXiXiXiXiXiXiXiX                        iXiXiXiXiXiXiXiXiXiX",
"iXiXiXiXiXiXiXiX      X p C ' 7.7.' b 3 X       iXiXiXiXiXiXiXiX",
"iXiXiXiXiXiXiX    : 5.:X,X>X,X;X#X~.F.k.8.n $     iXiXiXiXiXiXiX",
"iXiXiXiXiX    X 5.rX9X5X4X,X4X-X#XE.A.k.h.t.+.e       iXiXiXiXiX",
"iXiXiXiX    * Y.wX9X3X3X-X#X#X~.x.b.^.].~.g.s.T b +     iXiXiXiX",
"iXiXiXiX  @ OX9XqX%X-X,X3X=XW.j.@.-.~ x x ~ Q } U b O   iXiXiXiX",
"iXiXiX  X Z.5X#X9.! K a.Q.1X8XN.=.-.:.K Z 4.n.j.[ H 3     iXiXiX",
"iXiX    C T.1Xs.+.L A 6.M.;XyX{.>.,.;Xw.B oXm.}.=.J j 1     iXiX",
"iXiX  * J.H.8XN.N.oXB w.yXwXuX_.:.,.[.XXe.U m.Q.>.U J I $   iXiX",
"iX    h W.H.wX1XeXP.0.] eXuXtX_.-.M.Q.U.Z U.8XW.@.Y U I n     iX",
"iX    1 =X^.yXuXuX<X2.oXuXuXtXc.;.p.I.:X2X$XL.t.| T G n o.o   iX",
"iX  + 0 R.3X9XtXuXuXuXuXuXuX0XH.z.c.G.@X+X(.J.u.W Y n m  .1   iX",
"iX  * 3 0.:X5XwXyXuXtX4X9XyX0X/.k.y.a.S./.(.n.;.{ Y n b [ e   iX",
"    : 0 ` 5X3X6XyXeX4X+X%XtX9X@Xp.C.y.u.p.n.d.;.{ Y G m  .t     ",
"    , 5 s wX-XqXeX3X).u.>X0X,X).9.y.X.#.( ^ @.X./ T G t u 1     ",
"    , 0 0 2X7X7X7X(.u.) A.).D.y.Q ! W O.} | / { Y W G u 1 <     ",
"    = 0 5 5.<X<X`.F.( i.~.&XU.9.o.Q Q W W } |  .T [ G v 5 >     ",
"iX  * 6 0 1 7.=XW.j.X.H.-X-X`.b.y.( R L D L  .$.T ..G v 6 %   iX",
"iX  + r 5 1 ` =XI.n.&.f.t.d.A.g.#.o.%.R k ^ $.8.o.o.n u 5 +   iX",
"iX    6 7 r M <XE.].;.s.P T.tXwX'.U.q.! S X.$.s.9./ x s y     iX",
"iX    < 7 r w '.'.'.f.b.z.c.2X9XU.z.) F ^ #.l.$. .Y x N 9     iX",
"iXiX  o 9 f q 0.$X=XD.D.-X;XL.).J.c.-.#.) z.b.[ W n d N @   iXiX",
"iXiX    > c 2 f P.$X].L.-X=XJ.c.g.y.p.y.&.z.%.T H j z -     iXiX",
"iXiXiX    1 9 9 d P.<X$X=X$XE.V.V.V.V.h.s.&.W J k k a     iXiXiX",
"iXiXiXiX  . > 9 9 d OX2X5X6X3X&X%X%X#XI.h.+.J l k l O   iXiXiXiX",
"iXiXiXiX      & 2 2. X/.6X5X7X3X,X,X!.k.t.W g g h O     iXiXiXiX",
"iXiXiXiXiX    . N .X|.1.$X=X$X`.^.^.D.&.W b g 3 .     iXiXiXiXiX",
"iXiXiXiXiXiXiX    ; <.N /.!.!.F.l.y.O.I g 4 @     iXiXiXiXiXiXiX",
"iXiXiXiXiXiXiXiX        p C M g h a 4 #         iXiXiXiXiXiXiXiX",
"iXiXiXiXiXiXiXiXiXiX                        iXiXiXiXiXiXiXiXiXiX",
"iXiXiXiXiXiXiXiXiXiXiXiXiXiX        iXiXiXiXiXiXiXiXiXiXiXiXiXiX"
};
