/* XPM */
static char *_9529aa32ad94cd1f1c13c812643ce88nU4eUQRWOjPKT9Ie[] = {
/* columns rows colors chars-per-pixel */
"16 16 188 2 ",
"   c None",
".  c #010101",
"X  c #020202",
"o  c #030202",
"O  c #020302",
"+  c #030302",
"@  c #030203",
"#  c #050504",
"$  c #060504",
"%  c #070505",
"&  c #050604",
"*  c #070605",
"=  c #070606",
"-  c #080805",
";  c #090807",
":  c #080A07",
">  c #100D0B",
",  c #110F0D",
"<  c #0D110D",
"1  c #15120E",
"2  c #18130F",
"3  c #0A0D12",
"4  c #121612",
"5  c #1E1714",
"6  c #1F1A14",
"7  c #221B19",
"8  c #271F19",
"9  c #1A2214",
"0  c #22211F",
"q  c #23251F",
"w  c #2A241C",
"e  c #2A321D",
"r  c #151A22",
"t  c #322923",
"y  c #2C3020",
"u  c #2E3523",
"i  c #303623",
"p  c #363126",
"a  c #333424",
"s  c #343528",
"d  c #323A2E",
"f  c #343D31",
"g  c #483A2E",
"h  c #3E4C30",
"j  c #474B35",
"k  c #49453F",
"l  c #534437",
"z  c #5D4C3E",
"x  c #5B513B",
"c  c #64523F",
"v  c #363745",
"b  c #4E4D47",
"n  c #46424C",
"m  c #655246",
"M  c #6D5845",
"N  c #705544",
"B  c #6A5E55",
"V  c #746247",
"C  c #756348",
"Z  c #7C664E",
"A  c #68625C",
"S  c #6A685C",
"D  c #536579",
"F  c #77796D",
"G  c #856A52",
"H  c #856B53",
"J  c #846C51",
"K  c #886E59",
"L  c #926958",
"P  c #8B7056",
"I  c #897058",
"U  c #9C795F",
"Y  c #9C7B5E",
"T  c #9D7A5F",
"R  c #8D7565",
"E  c #8F7766",
"W  c #9C7864",
"Q  c #997C66",
"!  c #A07C67",
"~  c #A07C68",
"^  c #A97A69",
"/  c #83816F",
"(  c #8F8076",
")  c #938078",
"_  c #A48066",
"`  c #A88267",
"'  c #AD8866",
"]  c #A08369",
"[  c #A6846F",
"{  c #AC816F",
"}  c #A5886B",
"|  c #A58478",
" . c #A08A7A",
".. c #B08E72",
"X. c #AF9174",
"o. c #BE9177",
"O. c #BA957E",
"+. c #BC9A7F",
"@. c #C89379",
"#. c #E39F7D",
"$. c #9B8E89",
"%. c #A29983",
"&. c #A2938A",
"*. c #A19A8C",
"=. c #BE9080",
"-. c #BE9380",
";. c #BE9D80",
":. c #BE9884",
">. c #B59F90",
",. c #BBA08F",
"<. c #B5A293",
"1. c #B3AB9A",
"2. c #BBA89C",
"3. c #B1AFAB",
"4. c #A5A8BF",
"5. c #C19483",
"6. c #C69686",
"7. c #C09D81",
"8. c #C19B8B",
"9. c #C59F88",
"0. c #C5A38B",
"q. c #C9A58C",
"w. c #D3A089",
"e. c #CDA596",
"r. c #CBAB9A",
"t. c #CDAF9F",
"y. c #D0A790",
"u. c #D2A698",
"i. c #C1B39C",
"p. c #CFB29E",
"a. c #D1B09B",
"s. c #D8B79F",
"d. c #CDB7A8",
"f. c #D6B9A3",
"g. c #D6BFA6",
"h. c #DDBEA1",
"j. c #DABBA6",
"k. c #DFBEA4",
"l. c #DCB6A8",
"z. c #D4BAAA",
"x. c #DABDA8",
"c. c #E2BCAF",
"v. c #EFC59B",
"b. c #D0C1AF",
"n. c #CFC1B1",
"m. c #CBC5B8",
"M. c #DBC5B0",
"N. c #DCC3B5",
"B. c #D9C9B3",
"V. c #D7CBBC",
"C. c #E0C0AC",
"Z. c #E6C8AB",
"A. c #E2C6B0",
"S. c #E2C7B5",
"D. c #E3C8B1",
"F. c #E7C5BA",
"G. c #E5CDBE",
"H. c #E9CDB8",
"J. c #EBC9BC",
"K. c #E9D0B6",
"L. c #ECD3B8",
"P. c #F3D7BE",
"I. c #E5D6C6",
"U. c #EDD1C0",
"Y. c #EFD5C2",
"T. c #E8D2C6",
"R. c #EFD6C5",
"E. c #EAD7CD",
"W. c #EDD6CC",
"Q. c #EEDDCD",
"!. c #F2DDCD",
"~. c #F5DFCD",
"^. c #F8DFC9",
"/. c #EEDFD1",
"(. c #F0DDD5",
"). c #EFE0CE",
"_. c #E9E5DC",
"`. c #F4E3D0",
"'. c #F6E1D4",
"]. c #F8E9DC",
"[. c #FAEEDF",
"{. c #F8EFE4",
"}. c #FAF1E2",
"|. c #F6F0ED",
" X c #FBF2E8",
".X c #F4F5F2",
"XX c #FBF6F3",
"oX c #FBFBF9",
/* pixels */
"            # 1 , #             ",
"        0 A &.2.>.E l 2         ",
"    X b m.].'.R.c.s.0.I w X     ",
"    k V.d.t.P.Z.@.| ) ;.J 6     ",
"  5 <.L.,.$.!.^.#.z.%.v.' c 1   ",
"  p M.}._.3..XW.w.Z.b.c._ P g   ",
"X s n. XoX|.XXE.e.l.J.y.W J M # ",
"# a 1.[.{.F.(.T.:.-.5.o.T Z x - ",
"# u / ).H.6.S.p.[ Q ~ ` W C i & ",
"X e j i.h.9.x.j.:.W L X.} C e O ",
"  9 h %.K.q.r./.b.^ ^ ;.] B q   ",
"  : f S B.A.U.c.u.@.:.X.G n 3   ",
"    4 d F I.`.G.N.f.+.I N 7     ",
"    X < D 4./.~.Y.a.Q z w X     ",
"        r v E  .E m t >         ",
"            3 ; # X             "
};
