/* XPM */
static char *_b42695ff1704210bfe9fffe19a2d06bozI5noq3kZlGzzGV[] = {
/* columns rows colors chars-per-pixel */
"64 64 254 2 ",
"   c None",
".  c #010101",
"X  c #0C0B09",
"o  c #080A07",
"O  c #0E110C",
"+  c #13130E",
"@  c #1A1C14",
"#  c #171813",
"$  c #101114",
"%  c #231B17",
"&  c #1D2618",
"*  c #1E220F",
"=  c #27281A",
"-  c #2C3519",
";  c #141A2A",
":  c #2A2926",
">  c #332A24",
",  c #372C27",
"<  c #293726",
"1  c #3B3C2B",
"2  c #393829",
"3  c #3A3B34",
"4  c #2A3232",
"5  c #1C232B",
"6  c #433B2C",
"7  c #493C36",
"8  c #513833",
"9  c #3C432C",
"0  c #3C4B2D",
"q  c #374329",
"w  c #3D4533",
"e  c #3C4B33",
"r  c #3B4738",
"t  c #3E5131",
"y  c #3E542F",
"u  c #41442C",
"i  c #46492D",
"p  c #424A32",
"a  c #454638",
"s  c #564839",
"d  c #425233",
"f  c #4B5134",
"g  c #5A513D",
"h  c #42502B",
"j  c #694E3E",
"k  c #2C3654",
"l  c #313D60",
"z  c #384358",
"x  c #494B45",
"c  c #5B5747",
"v  c #575855",
"b  c #544E4B",
"n  c #6C5B4B",
"m  c #685747",
"M  c #725C4C",
"N  c #785A47",
"B  c #685C53",
"V  c #765C54",
"C  c #704B43",
"Z  c #7B644B",
"A  c #78644B",
"S  c #67635A",
"D  c #796654",
"F  c #6C6A4C",
"G  c #4F5168",
"H  c #655663",
"J  c #686A66",
"K  c #787773",
"L  c #797066",
"P  c #516276",
"I  c #85574C",
"U  c #925C52",
"Y  c #81654D",
"T  c #83694D",
"R  c #896B4F",
"E  c #95624F",
"W  c #846B54",
"Q  c #8B6C53",
"!  c #866858",
"~  c #966C58",
"^  c #8C745A",
"/  c #8B7456",
"(  c #94755B",
")  c #9A7A5C",
"_  c #977658",
"`  c #A36B5C",
"'  c #8A7769",
"]  c #947561",
"[  c #9B7C63",
"{  c #997966",
"}  c #877D72",
"|  c #927169",
" . c #A47B64",
".. c #AB7C6A",
"X. c #A87966",
"o. c #B67A6A",
"O. c #AF736C",
"+. c #9E8165",
"@. c #9F826B",
"#. c #8C867A",
"$. c #988778",
"%. c #938C76",
"&. c #A38364",
"*. c #AA8364",
"=. c #A4836C",
"-. c #AB856B",
";. c #AB8B6C",
":. c #A7886A",
">. c #B4886A",
",. c #AB8A73",
"<. c #A78774",
"1. c #B28572",
"2. c #B38B74",
"3. c #BB8B74",
"4. c #B98B79",
"5. c #AC957A",
"6. c #BB9375",
"7. c #B5957B",
"8. c #BB937C",
"9. c #BC9B7C",
"0. c #B49476",
"q. c #B5926E",
"w. c #AE815D",
"e. c #CB8A6C",
"r. c #C48B78",
"t. c #C2947B",
"y. c #C49979",
"u. c #D99273",
"i. c #E49575",
"p. c #F09A74",
"a. c #E4A77B",
"s. c #F3A87D",
"d. c #CD936A",
"f. c #5A6387",
"g. c #6A6D93",
"h. c #4C5B89",
"j. c #7282BF",
"k. c #778AC7",
"l. c #989487",
"z. c #989797",
"x. c #BD9B82",
"c. c #B99785",
"v. c #AF9C8B",
"b. c #BBA388",
"n. c #B8A895",
"m. c #AAA9A8",
"M. c #BDB6A7",
"N. c #B7AFB1",
"B. c #C68B83",
"V. c #C29582",
"C. c #C29B83",
"Z. c #CB9D84",
"A. c #C59C8B",
"S. c #CB9E8B",
"D. c #C89486",
"F. c #D39D8E",
"G. c #CE9991",
"H. c #EA9C85",
"J. c #C3A285",
"K. c #C4A38B",
"L. c #CBA38C",
"P. c #CBA689",
"I. c #D4A78A",
"U. c #CBA492",
"Y. c #CBAB94",
"T. c #C8A897",
"R. c #D2AC93",
"E. c #D2AB99",
"W. c #D7A798",
"Q. c #C9B298",
"!. c #D3B29B",
"~. c #DAB69D",
"^. c #DEB084",
"/. c #E6A88A",
"(. c #F8BC96",
"). c #EFAC8F",
"_. c #DBAAA3",
"`. c #CCB9A7",
"'. c #D3B4A2",
"]. c #DAB5A4",
"[. c #DBBBA4",
"{. c #DDBCAA",
"}. c #D6B8A6",
"|. c #D0B4AB",
" X c #E4B9A8",
".X c #E6BDB3",
"XX c #EEB6A6",
"oX c #FAC397",
"OX c #F0CC96",
"+X c #DBC7AB",
"@X c #DAC7B5",
"#X c #CFC7B1",
"$X c #E3C4AD",
"%X c #E8C7A8",
"&X c #F9CBA5",
"*X c #FAD4AB",
"=X c #E3C5B3",
"-X c #E5CAB4",
";X c #EACBB5",
":X c #E4CBBA",
">X c #EACDBB",
",X c #E8C4B8",
"<X c #ECD3B5",
"1X c #E4D3BD",
"2X c #ECD2BC",
"3X c #EEDABE",
"4X c #F5D8BA",
"5X c #EAD1AC",
"6X c #FDE3B7",
"7X c #FDEAAD",
"8X c #8A9BC7",
"9X c #8CA9CD",
"0X c #BFBCC2",
"qX c #90B0E6",
"wX c #A3B8E1",
"eX c #9DC2EB",
"rX c #DBD4C5",
"tX c #D3D2D0",
"yX c #ECCDC4",
"uX c #E5CCC0",
"iX c #E6D4C3",
"pX c #ECD4C3",
"aX c #EDDAC4",
"sX c #EDD4CA",
"dX c #EDDCCB",
"fX c #E3DBCA",
"gX c #F1D5C4",
"hX c #F1DBC3",
"jX c #F2DCCB",
"kX c #F6D9C9",
"lX c #F2DED2",
"zX c #FEDFD4",
"xX c #EFD8CD",
"cX c #F3E2CC",
"vX c #F8E5C7",
"bX c #ECE4D4",
"nX c #F4E3D3",
"mX c #F6E5DB",
"MX c #F6EBDC",
"NX c #F9EBDC",
"BX c #F7E8D7",
"VX c #FBF4D8",
"CX c #F8EECC",
"ZX c #EBEBE8",
"AX c #F6ECE2",
"SX c #F9EDE2",
"DX c #F7EAE5",
"FX c #F9F3E5",
"GX c #F9F5EC",
"HX c #FCFAEC",
"JX c #FAF7E4",
"KX c #FCFBF4",
"LX c #FDFDFC",
"PX c #FAF6F2",
/* pixels */
"                                                                                                                                ",
"                                                  . . . . . . . . . . . . . .                                                   ",
"                                          o . . . . . . . . . . . . . . . . . . . . .                                           ",
"                                      . . . . . . . . . . . . . . . . . . . . . . . . . .                                       ",
"                                  . . . . . . . . o # > a b V D D V b 7 > + o . . . . . . . .                                   ",
"                              . . . . . . . $ 3 L v.|.:XgX>X2X2X>X;X$X+X!.c.] m , X . . . . . . o                               ",
"                            . . . . . . : L `.sXnXsXjXlXkXxXkXpXpX2X-X=X[.[.R.P.J.[ s @ . . . . . .                             ",
"                          . . . . . : l.rXmXNXmXlXlXlXlXzXlXlXlXjXsX2X-X X~.Y.I.P.J.y.:.j % . . . . .                           ",
"                      . . . . . @ K rXJXFXNXNXmXlXlXlXmXmXnXmXjXjXjXiX=X[.E.E.Y.J.J.y.C.6.( s X . . . . .                       ",
"                    . . . . . a M.JXKXGXSXFXAXAXDXlXlXmXmXBXlXjXyX>X$X'._.~.!.R.Q.K.x.J.9.,.) m % . . . . .                     ",
"                  . . . . o S fXJXJXJXSXSXNXNXmXDXxXsXlXzXjXpX>X[.~.E.!.%X<X<X4X2X+XE.K.K.0.+.] W , . . . . .                   ",
"                . . . . X K bXFXFXFXSXNXnXjXjXkXjX>X:XpX>X=X=X[.R.P.Y.$X>X%X%X$X%X XU.K.P.y.:.^ / W 6 o . . . .                 ",
"                . . . X } AXJXFXAXMXmXbXjXjXjXjXlX2X2XaX$XR.!.I.6.2.S.W.c.{ ' ' | } } ....l.<.:.^ D L i o . . .                 ",
"              . . . o L bXJXMXMXDXDXuXiXhXkXnXNXNXVXvXMXvX+XR.y.3.3.....| V C b 8 b ' | | | { =.( W / Z > . . . .               ",
"            . . . . S dXMXFXMXdX@XT.v.<.7.D.W.XX4X*X6XJXVX6XXXI.d.e.o.o.o.o.X.7 3 > 8 c.G.I.V.q.w./ T Z g # . . . .             ",
"          . . . . = `.nXnXbXiX`.<.! N m C 8 O.B./.(.*XJXJXCX*X(.a.>.e.u.i.XX|.v m.m.z.rX&X*X*X/.q.+.R R j 2 O . . . .           ",
"          . . . + } |.MXbX5Xb.@.( ! ~ s 8 s 7 o.i.i.&XHXLXJX6XoXp.w.u.).XXAXfXz K m.LXKXOXOX7X7Xa.w.R T N s 6 o . . .           ",
"        . . . . L @XQ.nXGXCXOXI.y.^..Xb m.z.0XrXzX/.XXHXLXHXCX(.s.o.p.p.XXLXLX0Xv 3 K ZXoXs.OX*Xa.q./ R T F n 6 . . . .         ",
"        . . . % B.<Xb.bXGXVX*X/.u.*XLXK v J bXLXLXNXvXKXLXKXvX(.a.d.p.p.(.SXKXKXtX%.c ,.s.s.oXoX/.w./ R Q Z D W @ . . .         ",
"      . . . . ! H.;Xn.iXFXVX6Xu.i.FXLXZXz.k x N.LXJXVXLXLXLXzX).i.e.i.).oX6X1XS m.5.F ;.&X*X*X&X/.>./ R W W W +.j . . . .       ",
"      . . . + b./.vXn.@XVXHXCX4XMXLXLXbXZXl.l.S HXMXJXLXLXPXkX).e.e./.(.(.*X4X' p u F <XCXVX6X%Xy.;.) / R W W [ :.@ . . .       ",
"    o . . . + $.XXcX`.-XFXKXVXVXKXKXZXv $.' L K KXLXLXLXLXLXzXW.3.3.Z.~.%X*XkXCXM.l.VXJXJXvX5X!.6.;. .Q / W W ( 6.j . . . .     ",
"    . . . . * A -XcX-X>XGXLXLXPXLXKXKX#Xv 4 J bXLXLXLXLXLXKXpXt.3.4.B.R.[.>XMXMXSXAXMXbXaX{.R.V.8.,.[ Q R T Z W 0.] X . . .     ",
"    . . . X - i +XnX>X>XFXKXLXLXLXLXLXLXPXN.ZXLXLXLXLXLXLXDX].B.D.D.U.W.].=XuXsXsXiX>X-X XW.L.3.*.[ ( ~ T T A W 7.:.= . . .     ",
"    . . . * q i n.NXsXnXSXGXKXLXLXLXLXLXLXLXLXLXLXLXLXLXLXmX{.W.E.E.T.E.{..X,XyXyXyX,X.X XW.S.4.X.) ( Q T A A Q 0.:.s . . .     ",
"  . . . . < a 1 $.SXMXMXNXSXFXPXLXLXLXLXLXLXLXLXLXLXLXLXPXmXuX}.!.T.G.E._.{..XuXyXyXyX;X X~.I.V.-.) _ ( Z N M W =.:.D . . . .   ",
"  . . . o 2 i 1 S MXMXlXmXSXSXHXKXLXLXLXLXPXPXGXDXPXPXPXPXDXyX@XE.U.A.A.S.].{.uXyXyXpX>X$XW.I.y.>.[ ( Q Z N n D +.:.Q + . . .   ",
"  . . . X w 6 6 n bXnX>XjXNXSXFXKXLXLXLXPXDXzXyXyXmXPXKXPXDXsX|.U.A.A.A.B.D.W._.,XyXyX-X XI.J.y.q.&.( Q Z A n ! &.q. .% . . .   ",
"  . . . + w 6 f m rXNXnXdXBXMXFXHXKXKXPXSXnXkXyX,XlXKXKXGXDXyX.X_.n.T._.A.C.S.U.~. X.X XI.I.y.t.>.&.) ! W D M ^ ;.q.) = . . .   ",
"  . . . @ 1 1 i u M.GXSXBXnXBXFXHXKXPXSXmXlXyX.X.XGXKXKXPXmXsX=XT.c.E.'.U.V.S.t.3.B.G.F.Z.Z.t.3.>.w.) Q R Z M ^ q.;./ = . . .   ",
"  . . . @ p 1 9 2 #.FXFXnXnXBXFXKXGXAXnXkX>X XG.,XPXPXGXDXlXlX@XG.c.C.U.V.1.c.r.1.` X.3.t.t.y.>. .:.[ W T T M g / ^ g * . . .   ",
"  . . . @ p 9 u 6 F bXVXdXnXMXFXGXFXbXhX,XW.r.r._.PXDXDXxXgX>X_.c.<.2.8.X.X.1.4.1.X.~ ` X.>.>.o.~ [ &./ T T Z < - q 0 = . . .   ",
"  . . . # w 9 a 9 c rXJXmXnXBXNXBXNXjX;XXXG.o.o.U.iXsX>X=X{.].A.X.{ ] ] {  .,.1.<.=...X.{ X.-...~ _ *.Q T T Z i * - 0 & . . .   ",
"  . . . @ p 0 u u p #XJXBXBXBXnXnXcXgX.XF.o.O.1.S.{.+X[.'.E.c.<.{ { { {  . .<.[ { <.<.<... .*.w._ ~ :.) R T A h 2 h e & . . .   ",
"  . . . # d h w p u #.MXNXnXnXvX4XhX2X!.4.` ..V.!.:X3X1X@X!.b.0.<.<.{ { { [ [ { { @.{ <.<.,.;.*._ / ;.) T Z T g h q 0 @ . . .   ",
"  . . . + 0 w 9 w a a v.1XcXnXpX<X4X$XI...O.V.!.;XjXdXdX1X#XK.c.5.5.,...-.[ { [ [ @.=. .=.;.;.q.w./ q.) T T Z m i q 1 + . . .   ",
"  . . . O q h 9 w i 9 2 J dXvX3X$X5XOX9. .4.E.=XhXnXnXnXaX-X~.Y.S.c.2.;...-.X.( U ~ ~ ( :.;.q.9.&._ ;.+.Z Z Z F 0 q q O . . .   ",
"  . . . o 0 h q 9 u q > c iXcX3X~.<X%X6.X.x.Y.-XsXcXjXiX>X-X].W.F.8.*.` ~ U I I I j C E ;.;.;.9.+.+.5.+.Z A Z m e q q o . . .   ",
"  . . . . - h 0 u 1 1 - s :XcX3X!.5X%XC.>.9.K.{.-X~.L.Z.S.Z.Z.6.o.X.~ )  .] U I I C N ..6.q.0.9.&.,.9.+.R Z Z g a 0 = . . . .   ",
"    . . . * d h p 1 u i a #XcX3X~.+X<XI.3.9.9.A.1.E >.%X>XiX$XR.r.U.P.n.T.Q.,.{ ! N ` 3.0.0.b.b.,.7.c.+.Z A A f 2 1 @ . . .     ",
"    . . . + 0 y t 0 t d f n.CXaX[.+X3X[.y.8.J.6.U N b.FXPXPXJXBX$XcX+X#X#X!.5.[ I U X.>.y.9.J.9.<.b.2.{ W N m s g 9 O . . .     ",
"    . . . . < y y y t e 1 %.vX3X5X+X3X5XL.8.I.L.X.! x.PXLXKXKXJXfX3X+XQ.c.4.( I U ` ..>.q.9.Q.0.<.x.:.^ Y M m i D u . . . .     ",
"    . . . . & y t t d d 2 B 1XvX<X:XvX-XY.6.Y.!.A.c.c.{.ZXGXFXbX5X@X`.b.r.E U U ` X.-.3.9.!.y.&.;.0.&.! V V v v F & o . . .     ",
"      . . . O q t y x t 0 a `.cXcXaXaX1X[.9.K.$X.X.X_.W.>XbXMXbX+X5XQ.b.o.o.` ` O...1.C.Q.+XJ.+.;.:.] V B H g.g.f.# . . .       ",
"      . . . . & e r e t r a l.hXnXaXcX3X$XK.K.-XlXkXgXgX.X_.yXsX[.~.W.F.D.o.O.o.X...c.E.|.~.q.+.:.+.T A B G G h.z . . . .       ",
"        . . . X q x v x 3 a B #XaXaXcXaX-X!.L.>XcXlXkXyX,X.XXX_. XW.W.G.B.B.c.2.1.1.K.'.[.J._ ) +./ Y m m G l l $ . . .         ",
"        . . . . # r J v x 3 a K @XaXaXhX3X+X!.-XhXcXkXgX.XXX_.W.W.G.G.A.G.U.A.c.4.4.T.!.!.;._ ) _ R N m n v l ; . . . o         ",
"          . . . . & v v x 4 2 u #.@XaXaXaX2X$X$XgXcXcXgX.X_.].T.K.A.T.T.U.E.T.c.c.c.K.Y.x.] / _ / N m N m b k o . . .           ",
"          o . . . X q z p r 3 w z #.#X3XbXdX1X2XaXcXcX>X=X[.!.Q.T.T.T.T.Y.Q.P.9.V.C.K.9.:.( Q Q T N I j N b $ . . . .           ",
"            . . . . & < 3 a a w t v #.5XcXcXvXbXjXcXcXaX,X+X}.'.|.}.`.`.`.'.!.P.P.J.b.0.@.^ W W j Z I Y C > . . . .             ",
"              . . . . # < r r r e r r #.1XcXbXBXBXnXBXBXlXpXiXyXuXuXuXiX1X:X+X].I.J.9.:.^ D A M j N R I 6 . . . .               ",
"                . . . . $ < < r e 4 4 G 0X1XfXVXMXFXSXNXNXmXnXmXbXbXlXlXdXiX:X~.Y.J.7.&./ A M m A I ! 6 o . . .                 ",
"                . . . . . + & < : 4 z 8XwX0X:XsXNXFXMXNXNXSXNXmXmXmXlXlXsX=X].U.P.9.;.( D n m m Z Y 6 o . . . .                 ",
"                  . . . . . O < 4 G 9XwXqX8XN.yXnXMXBXjXcXmXlXjXxXxXlXgX=X'.U.K.C.0.[ ! V n m M N , . . . . .                   ",
"                    . . . . . $ z 9XeXqXqXj.g.N.iXBXnXhXjXhXgX2X;XgXkX;X$X!.K.x.2.[ ^ M n n V s % . . . . .                     ",
"                      . . . . . $ P 9XqXqXk.f.H `.aXjXvXhXgX3X;X;X;X-X%X~.R.8.,.[ ^ M n M m , X . . . . .                       ",
"                          . . . . . 5 h.k.j.f.H |.:X>X2X2X>X-X$X%X~.~.Y.A.7.{ ] ! V m c 7 + . . . . .                           ",
"                            . . . . . . ; z G H @XcX@X}.[.}.!.Y.J.C.c.<. .] ! D n s , $ . . . . . .                             ",
"                              . . . . . . . X @ J v.|.|.n.c.5.@.[ | | ! V m x , # o . . . . . . .                               ",
"                                  . . . . . . . . o @ , 3 , > > > > : % % $ . . . . . . . . .                                   ",
"                                      . . . . . . . . . . . . . . . . . . . . . . . . . .                                       ",
"                                          . . . . . . . . . . . . . . . . . . . . . o                                           ",
"                                                  . . . . . . . . . . . . . o                                                   ",
"                                                                                                                                "
};
